<?xml version="1.0" standalone="no"?>
<!DOCTYPE svg PUBLIC "-//W3C//DTD SVG 20010904//EN"
 "http://www.w3.org/TR/2001/REC-SVG-20010904/DTD/svg10.dtd">
<svg version="1.0" xmlns="http://www.w3.org/2000/svg"
 width="2160.000000pt" height="2160.000000pt" viewBox="0 0 2160.000000 2160.000000"
 preserveAspectRatio="xMidYMid meet">

<g transform="translate(0.000000,2160.000000) scale(0.100000,-0.100000)"
fill="#000000" stroke="none">
<path d="M10375 21260 c-622 -73 -1232 -305 -1718 -652 -389 -277 -697 -592
-956 -978 -328 -488 -521 -999 -608 -1610 -25 -178 -25 -685 0 -890 103 -841
462 -1587 1054 -2189 67 -69 122 -126 120 -127 -1 -1 -42 -16 -92 -34 -399
-145 -858 -377 -1219 -614 -329 -217 -682 -530 -914 -808 -58 -71 -109 -128
-114 -128 -5 0 -227 144 -494 320 -267 176 -489 321 -493 323 -5 1 -279 -264
-610 -590 l-601 -591 -127 49 c-71 27 -220 84 -333 127 l-205 79 -3 -1597 c-2
-1262 -5 -1600 -15 -1607 -6 -6 -45 -20 -86 -32 -89 -27 -253 -110 -355 -181
-158 -109 -315 -271 -431 -445 -330 -492 -412 -1136 -220 -1721 167 -509 553
-923 1001 -1073 47 -16 90 -33 95 -38 5 -5 10 -642 11 -1482 l3 -1473 3860
-1489 c2123 -819 3866 -1489 3872 -1489 9 0 7485 2879 7731 2977 9 4 12 310
12 1483 l0 1477 93 33 c655 227 1106 918 1107 1695 1 813 -456 1513 -1132
1735 l-68 22 -2 1603 -3 1603 -335 -129 -334 -130 -176 174 c-580 574 -1023
1007 -1030 1007 -5 0 -226 -143 -492 -318 -266 -175 -489 -322 -496 -326 -8
-5 -21 3 -35 21 -482 617 -1174 1108 -2077 1475 -47 19 -120 48 -162 63 l-78
28 133 137 c458 470 773 1015 941 1626 145 527 168 1058 70 1624 -160 934
-675 1769 -1446 2348 -452 339 -1027 587 -1578 681 -317 54 -761 67 -1065 31z
m635 -695 c534 -26 1124 -242 1575 -578 254 -189 505 -445 677 -692 306 -437
482 -911 539 -1446 18 -167 16 -498 -5 -654 -44 -340 -130 -635 -270 -930
-479 -1005 -1470 -1671 -2566 -1724 -853 -41 -1640 252 -2251 837 -723 693
-1055 1695 -888 2687 47 281 133 544 269 820 358 726 969 1263 1744 1531 299
104 723 170 1006 157 30 -1 107 -5 170 -8z m-1927 -6319 c388 -210 921 -365
1395 -407 178 -15 626 -7 792 16 420 56 829 184 1223 381 l111 56 98 -27 c117
-31 470 -149 583 -195 701 -281 1244 -639 1648 -1086 125 -137 135 -151 115
-169 -7 -6 -966 -641 -2132 -1409 l-2118 -1397 -702 463 c-385 255 -1346 889
-2133 1408 -788 520 -1433 948 -1433 951 0 15 196 233 296 328 495 474 1185
847 2024 1095 63 19 123 34 133 35 9 1 54 -19 100 -43z m-2658 -2199 c759
-501 1387 -917 1395 -925 13 -13 13 -14 0 -9 -12 4 -3219 1242 -3335 1287
l-30 12 285 278 c157 153 289 276 295 272 5 -3 631 -415 1390 -915z m10430
644 c152 -150 273 -277 268 -282 -10 -9 -3354 -1301 -3359 -1297 -4 5 2800
1857 2808 1855 3 -1 131 -125 283 -276z m973 -2406 l-3 -546 -87 -29 c-582
-196 -1021 -793 -1097 -1492 -49 -441 63 -924 297 -1283 208 -321 520 -565
844 -662 l48 -14 0 -1237 -1 -1237 -3337 -1287 -3337 -1286 -3 4061 c-1 2233
0 4062 2 4065 3 2 1505 583 3338 1291 l3333 1287 3 -543 c1 -299 1 -788 0
-1088z m-10713 340 c1821 -702 3313 -1281 3318 -1284 4 -4 6 -1834 5 -4067
l-3 -4060 -3335 1287 -3335 1286 -3 1234 -2 1234 82 29 c229 81 395 184 572
355 352 342 547 826 547 1361 0 528 -185 993 -531 1341 -183 183 -384 311
-598 380 l-72 23 0 1084 0 1084 23 -4 c12 -3 1511 -580 3332 -1283z m-3549
-1565 c202 -51 386 -195 514 -402 129 -211 197 -522 171 -787 -70 -692 -628
-1126 -1136 -882 -269 129 -454 395 -532 761 -25 119 -25 393 0 507 34 159
103 329 180 443 196 291 513 433 803 360z m14827 -13 c243 -79 457 -305 560
-594 58 -160 78 -280 78 -463 1 -484 -258 -904 -637 -1037 -71 -24 -93 -27
-209 -27 -116 0 -138 3 -209 27 -122 43 -210 100 -312 201 -227 228 -336 540
-321 919 18 480 303 890 685 987 108 28 257 22 365 -13z"/>
</g>
</svg>
